<svg xmlns="http://www.w3.org/2000/svg" xmlns:xlink="http://www.w3.org/1999/xlink" viewBox="0 0 1366 768"><defs><style>.cls-1,.cls-2{fill:none;}.cls-2{stroke:#b7e3b6;stroke-width:2px;stroke-dasharray:2 1;}.cls-3{fill:url(#blue-vineyard);}</style><pattern id="blue-vineyard" data-name="blue-vineyard" width="72" height="72" patternUnits="userSpaceOnUse" viewBox="0 0 72 72"><rect class="cls-1" width="72" height="72"/><line class="cls-2" x1="0.5" y1="70.5" x2="72.5" y2="70.5"/><line class="cls-2" x1="0.5" y1="67.5" x2="72.5" y2="67.5"/><line class="cls-2" x1="0.5" y1="64.5" x2="72.5" y2="64.5"/><line class="cls-2" x1="0.5" y1="61.5" x2="72.5" y2="61.5"/><line class="cls-2" x1="0.5" y1="58.5" x2="72.5" y2="58.5"/><line class="cls-2" x1="0.5" y1="55.5" x2="72.5" y2="55.5"/><line class="cls-2" x1="0.5" y1="52.5" x2="72.5" y2="52.5"/><line class="cls-2" x1="0.5" y1="49.5" x2="72.5" y2="49.5"/><line class="cls-2" x1="0.5" y1="46.5" x2="72.5" y2="46.5"/><line class="cls-2" x1="0.5" y1="43.5" x2="72.5" y2="43.5"/><line class="cls-2" x1="0.5" y1="40.5" x2="72.5" y2="40.5"/><line class="cls-2" x1="0.5" y1="37.5" x2="72.5" y2="37.5"/><line class="cls-2" x1="0.5" y1="34.5" x2="72.5" y2="34.5"/><line class="cls-2" x1="0.5" y1="31.5" x2="72.5" y2="31.5"/><line class="cls-2" x1="0.5" y1="28.5" x2="72.5" y2="28.5"/><line class="cls-2" x1="0.5" y1="25.5" x2="72.5" y2="25.5"/><line class="cls-2" x1="0.5" y1="22.5" x2="72.5" y2="22.5"/><line class="cls-2" x1="0.5" y1="19.5" x2="72.5" y2="19.5"/><line class="cls-2" x1="0.5" y1="16.5" x2="72.5" y2="16.5"/><line class="cls-2" x1="0.5" y1="13.5" x2="72.5" y2="13.5"/><line class="cls-2" x1="0.5" y1="10.5" x2="72.5" y2="10.5"/><line class="cls-2" x1="0.5" y1="7.5" x2="72.5" y2="7.5"/><line class="cls-2" x1="0.5" y1="4.5" x2="72.5" y2="4.5"/><line class="cls-2" x1="0.5" y1="1.5" x2="72.5" y2="1.5"/><line class="cls-2" x1="-71.5" y1="70.5" x2="0.5" y2="70.5"/><line class="cls-2" x1="-71.5" y1="67.5" x2="0.5" y2="67.5"/><line class="cls-2" x1="-71.5" y1="64.5" x2="0.5" y2="64.5"/><line class="cls-2" x1="-71.5" y1="61.5" x2="0.5" y2="61.5"/><line class="cls-2" x1="-71.5" y1="58.5" x2="0.5" y2="58.5"/><line class="cls-2" x1="-71.5" y1="55.5" x2="0.5" y2="55.5"/><line class="cls-2" x1="-71.5" y1="52.5" x2="0.5" y2="52.5"/><line class="cls-2" x1="-71.5" y1="49.5" x2="0.5" y2="49.5"/><line class="cls-2" x1="-71.5" y1="46.5" x2="0.5" y2="46.5"/><line class="cls-2" x1="-71.5" y1="43.5" x2="0.5" y2="43.5"/><line class="cls-2" x1="-71.5" y1="40.5" x2="0.5" y2="40.5"/><line class="cls-2" x1="-71.5" y1="37.5" x2="0.5" y2="37.5"/><line class="cls-2" x1="-71.5" y1="34.5" x2="0.5" y2="34.5"/><line class="cls-2" x1="-71.5" y1="31.5" x2="0.5" y2="31.5"/><line class="cls-2" x1="-71.5" y1="28.5" x2="0.5" y2="28.5"/><line class="cls-2" x1="-71.5" y1="25.5" x2="0.5" y2="25.5"/><line class="cls-2" x1="-71.5" y1="22.5" x2="0.5" y2="22.5"/><line class="cls-2" x1="-71.5" y1="19.5" x2="0.5" y2="19.5"/><line class="cls-2" x1="-71.5" y1="16.5" x2="0.5" y2="16.5"/><line class="cls-2" x1="-71.5" y1="13.5" x2="0.5" y2="13.5"/><line class="cls-2" x1="-71.5" y1="10.5" x2="0.5" y2="10.5"/><line class="cls-2" x1="-71.5" y1="7.5" x2="0.5" y2="7.5"/><line class="cls-2" x1="-71.5" y1="4.5" x2="0.5" y2="4.5"/><line class="cls-2" x1="-71.5" y1="1.5" x2="0.5" y2="1.5"/></pattern></defs><title>Asset 1</title><g id="Layer_2" data-name="Layer 2"><g id="Layer_1-2" data-name="Layer 1"><rect class="cls-3" x="0.5" y="0.5" width="1365" height="767"/><path d="M1365,1V767H1V1H1365m1-1H0V768H1366V0Z"/></g></g></svg>